<?xml version="1.0" encoding="UTF-8" standalone="no"?>
<!DOCTYPE svg PUBLIC "-//W3C//DTD SVG 20010904//EN" "http://www.w3.org/TR/2001/REC-SVG-20010904/DTD/svg10.dtd">
<svg version="1.0" xmlns="http://www.w3.org/2000/svg" width="321.000000pt" height="103.000000pt" viewBox="0 0 321.000000 103.000000" preserveAspectRatio="xMidYMid meet">

<g transform="translate(0.000000,103.000000) scale(0.100000,-0.100000)" fill="#000000" stroke="none">
<path d="M304 868 c-70 -62 -144 -127 -163 -145 l-36 -32 33 -1 c28 0 48 15 158 124 129 128 157 146 206 127 15 -5 80 -64 146 -130 106 -107 124 -121 154 -121 l33 0 -58 53 c-56 51 -57 53 -57 105 0 49 -1 52 -25 52 -20 0 -25 -5 -25 -25 0 -14 -3 -25 -6 -25 -4 0 -31 21 -61 48 -132 114 -136 114 -299 -30z"/>
<path d="M359 793 c-52 -49 -131 -120 -175 -160 l-79 -72 60 -58 c132 -128 288 -268 301 -271 13 -3 364 313 364 328 0 6 -39 42 -188 174 l-23 21 15 -30 c9 -17 16 -40 16 -52 0 -29 -31 -93 -44 -92 -6 0 -26 23 -44 52 -25 39 -35 66 -39 115 l-6 64 24 -7 c21 -6 19 -2 -16 34 -21 22 -46 41 -55 41 -8 0 -58 -39 -111 -87z m155 -123 c1 -90 -18 -200 -33 -200 -12 0 -31 49 -38 98 -8 60 -21 31 -22 -49 -1 -61 13 -112 38 -144 19 -24 17 -23 -65 50 -35 32 -64 65 -64 74 0 10 26 57 57 107 61 95 93 167 94 212 0 25 2 23 16 -13 10 -25 16 -74 17 -135z m-59 120 c9 -15 -37 -110 -70 -145 l-28 -29 -9 24 c-15 39 0 87 38 125 35 35 58 43 69 25z m121 -266 c6 -47 9 -54 25 -49 15 5 19 1 19 -16 0 -13 -26 -48 -70 -93 -73 -75 -93 -72 -40 5 34 50 36 59 16 59 -24 0 -26 14 -10 60 9 25 16 73 17 108 l2 63 17 -42 c10 -22 21 -65 24 -95z"/>
<path d="M980 715 c0 -18 6 -29 20 -32 18 -5 20 -14 20 -113 0 -100 2 -109 20 -115 34 -11 40 3 40 103 0 102 4 114 33 125 12 5 17 15 15 29 -3 21 -9 23 -75 26 -73 3 -73 3 -73 -23z"/>
<path d="M1147 733 c-2 -5 -2 -70 1 -146 l5 -138 56 3 c55 3 56 4 56 33 0 25 -5 31 -30 35 -44 8 -46 38 -3 42 30 3 33 6 33 38 0 32 -3 35 -33 38 -43 4 -41 34 3 42 24 4 31 11 33 33 3 27 3 27 -57 27 -33 0 -62 -3 -64 -7z"/>
<path d="M1310 594 c0 -145 0 -145 23 -142 16 2 23 11 25 31 4 35 18 34 37 -3 16 -30 29 -35 59 -24 15 6 14 10 -4 41 -21 36 -26 63 -12 63 14 0 32 49 32 86 0 20 -8 49 -17 65 -16 27 -21 29 -80 29 l-63 0 0 -146z m88 74 c17 -17 15 -55 -4 -62 -23 -9 -34 2 -34 33 0 40 15 52 38 29z"/>
<path d="M1565 728 c-2 -7 -14 -44 -25 -83 -12 -38 -28 -88 -36 -110 -8 -23 -14 -51 -14 -63 0 -31 37 -29 62 3 24 31 68 34 75 5 6 -22 49 -38 63 -24 10 10 4 41 -30 149 -12 39 -25 84 -29 100 -5 23 -13 31 -34 33 -16 2 -29 -2 -32 -10z m43 -146 c2 -15 -2 -22 -12 -22 -11 0 -16 9 -16 26 0 31 23 28 28 -4z"/>
<path d="M1817 733 c-4 -3 -7 -64 -7 -133 0 -147 3 -153 77 -148 58 4 60 22 3 26 l-41 3 3 52 3 52 43 3 c23 2 42 7 42 12 0 5 -19 10 -42 12 l-43 3 0 50 0 50 43 3 c23 2 42 7 42 13 0 10 -113 13 -123 2z"/>
<path d="M1980 600 c0 -118 2 -140 15 -140 12 0 15 19 15 108 1 125 4 124 71 -15 43 -88 65 -115 74 -91 10 25 1 268 -10 268 -6 0 -12 -42 -15 -97 -5 -96 -5 -97 -22 -73 -9 14 -33 60 -54 103 -27 53 -44 77 -56 77 -16 0 -18 -12 -18 -140z"/>
<path d="M2202 598 l3 -143 53 0 c61 0 71 19 12 23 l-41 3 3 52 3 52 43 3 c56 4 54 22 -4 22 l-45 0 3 53 3 52 43 3 c64 5 50 22 -18 22 l-61 0 3 -142z"/>
<path d="M2360 600 c0 -117 2 -140 15 -140 12 0 15 23 17 128 l3 127 26 3 c37 4 61 -27 57 -74 -3 -37 -16 -51 -62 -67 -14 -5 54 -117 71 -117 8 0 13 3 11 8 -2 4 -12 24 -23 44 -19 38 -19 38 4 61 31 34 37 86 16 131 -17 35 -18 36 -76 36 l-59 0 0 -140z"/>
<path d="M2564 701 c-48 -73 -42 -159 16 -221 22 -23 37 -30 67 -30 48 0 78 20 104 72 30 60 22 69 -58 66 -80 -4 -91 -22 -15 -26 58 -3 64 -14 31 -56 -16 -20 -29 -26 -58 -26 -71 0 -113 82 -84 165 25 76 90 99 139 50 43 -43 60 -29 23 19 -18 23 -28 26 -80 26 -57 0 -59 -1 -85 -39z"/>
<path d="M2807 733 c-11 -10 -8 -256 3 -273 7 -10 10 34 10 133 0 81 -1 147 -3 147 -2 0 -7 -3 -10 -7z"/>
<path d="M2872 598 l3 -143 53 0 c64 0 73 18 12 25 l-45 5 0 50 0 50 43 3 c53 4 55 22 2 22 -33 0 -41 4 -46 24 -3 13 -4 37 -2 52 3 26 7 29 46 32 62 5 51 22 -13 22 l-56 0 3 -142z"/>
<path d="M3032 720 c-29 -47 0 -117 57 -135 52 -16 45 -109 -8 -103 -16 2 -30 12 -36 26 -13 29 -25 28 -25 -1 0 -31 29 -57 63 -57 37 0 67 36 67 80 0 36 -23 80 -41 80 -18 0 -69 44 -69 59 1 22 24 51 41 51 7 0 23 -12 36 -27 18 -23 22 -25 23 -10 0 10 -5 27 -10 38 -15 27 -80 27 -98 -1z"/>
</g>
</svg>