<?xml version="1.0" encoding="UTF-8" standalone="no"?>
<svg
   xmlns:dc="http://purl.org/dc/elements/1.1/"
   xmlns:cc="http://creativecommons.org/ns#"
   xmlns:rdf="http://www.w3.org/1999/02/22-rdf-syntax-ns#"
   xmlns:svg="http://www.w3.org/2000/svg"
   xmlns="http://www.w3.org/2000/svg"
   xmlns:sodipodi="http://sodipodi.sourceforge.net/DTD/sodipodi-0.dtd"
   xmlns:inkscape="http://www.inkscape.org/namespaces/inkscape"
   version="1.1"
   id="Layer_1"
   x="0px"
   y="0px"
   width="100%"
   viewBox="0 0 1324 421"
   enable-background="new 0 0 1324 421"
   xml:space="preserve"
   sodipodi:docname="logoBlack2.svg"
   inkscape:version="0.92.4 (5da689c313, 2019-01-14)"><metadata
   id="metadata109"><rdf:RDF><cc:Work
       rdf:about=""><dc:format>image/svg+xml</dc:format><dc:type
         rdf:resource="http://purl.org/dc/dcmitype/StillImage" /><dc:title></dc:title></cc:Work></rdf:RDF></metadata><defs
   id="defs107" /><sodipodi:namedview
   pagecolor="#ffffff"
   bordercolor="#666666"
   borderopacity="1"
   objecttolerance="10"
   gridtolerance="10"
   guidetolerance="10"
   inkscape:pageopacity="0"
   inkscape:pageshadow="2"
   inkscape:window-width="1920"
   inkscape:window-height="1027"
   id="namedview105"
   showgrid="false"
   inkscape:zoom="0.86706949"
   inkscape:cx="727.29482"
   inkscape:cy="231.29104"
   inkscape:window-x="-8"
   inkscape:window-y="22"
   inkscape:window-maximized="1"
   inkscape:current-layer="Layer_1" />
<path
   fill="#FEFEFE"
   opacity="1.000000"
   stroke="none"
   d=" M858.000000,422.000000   C572.000000,422.000000 286.500031,422.000000 1.000038,422.000000   C1.000026,281.666687 1.000026,141.333389 1.000013,1.000057   C442.333282,1.000038 883.666565,1.000038 1325.000000,1.000019   C1325.000000,141.333267 1325.000000,281.666534 1325.000000,421.999908   C1169.500000,422.000000 1014.000000,422.000000 858.000000,422.000000  M150.058563,375.301422   C140.175522,375.301422 130.292480,375.301422 120.165222,375.301422   C120.165222,380.072601 120.165222,384.313354 120.165222,388.816254   C141.563553,388.816254 162.753311,388.816254 184.873749,388.985565   C198.941360,388.985565 213.008972,388.985565 227.440033,388.985565   C227.149231,384.029816 226.902344,379.822235 226.625626,375.106445   C221.907700,375.106445 217.617722,375.088379 213.327957,375.109467   C192.547684,375.211609 171.767471,375.324249 150.058563,375.301422  M142.635178,369.792999   C143.053436,369.750031 143.471695,369.707092 144.811691,369.910706   C173.984802,369.910706 203.157928,369.910706 232.287277,369.910706   C232.934448,365.701843 233.360001,362.941071 233.783188,360.179901   C234.209534,357.397949 232.999588,356.229797 230.206467,356.231506   C213.457520,356.241821 196.708511,356.189392 179.046692,355.974762   C157.800217,355.974762 136.553726,355.974762 115.516907,355.974762   C115.516907,360.687592 115.516907,365.243042 115.516907,369.730408   C121.384178,369.730408 126.696373,369.730408 132.893799,369.949371   C135.932465,369.860687 138.971115,369.772003 142.635178,369.792999  M87.627808,98.755745   C97.078789,90.149529 106.529778,81.543320 116.608772,72.716446   C121.142509,68.542358 125.517799,64.178520 130.242691,60.233368   C140.321274,51.818024 150.294998,43.231033 160.857956,35.456581   C169.189896,29.324188 178.800232,29.001396 187.669968,34.372288   C194.597961,38.567383 201.076981,43.639614 207.253098,48.910736   C218.007324,58.089081 228.374237,67.721230 239.233307,77.735397   C248.804764,86.185822 258.376221,94.636246 268.210785,103.697685   C276.231384,111.206299 284.608398,118.374496 292.185303,126.306938   C302.396393,136.997177 315.248688,136.200623 329.328522,136.328583   C327.356049,134.265717 326.196625,132.946518 324.927704,131.742676   C313.212830,120.628479 301.472321,109.541298 289.754974,98.429665   C286.348267,95.199074 284.510773,91.372810 284.512207,86.502937   C284.514282,79.517242 283.991760,72.533127 283.855530,65.545166   C283.733124,59.265095 283.829712,52.980751 283.829712,46.003586   C278.843231,46.374538 274.423462,46.703335 269.106140,46.893372   C266.502563,46.893372 263.899017,46.893372 261.214539,46.893372   C260.187500,54.487926 259.263763,61.318634 258.230591,68.958611   C253.498978,65.254234 249.372955,62.023994 244.919937,58.204224   C239.536484,53.264309 234.308441,48.140793 228.736374,43.423679   C217.988632,34.325047 207.568192,24.708353 196.056458,16.675999   C180.758286,6.001657 164.623825,6.639400 150.076569,18.441179   C137.862030,28.350483 126.544319,39.365250 114.212212,50.136124   C101.751129,61.647903 89.290039,73.159691 76.178123,84.896835   C57.682270,101.369568 38.708179,117.338753 21.536827,135.702530   C28.295916,135.702530 34.285351,136.042786 40.208946,135.565643   C43.391151,135.309326 47.163876,134.466751 49.463623,132.487106   C62.176109,121.544098 74.517197,110.169632 87.627808,98.755745  M1207.826660,193.093399   C1207.826660,189.348907 1207.826660,185.604416 1207.826660,181.545166   C1219.062866,181.545166 1229.360718,181.628479 1239.654053,181.453217   C1241.156494,181.427628 1243.382812,180.558197 1243.985840,179.405334   C1245.631470,176.259384 1246.588013,172.752960 1248.228516,168.265015   C1234.410889,168.265015 1221.406250,168.265015 1208.310913,168.265015   C1208.310913,153.876068 1208.310913,140.468506 1208.310913,126.254211   C1212.693848,126.254211 1216.828491,126.254211 1221.578369,126.805344   C1230.171265,126.805344 1238.764160,126.805344 1247.705200,126.805344   C1247.705200,123.391228 1247.614014,119.614471 1247.733276,115.844391   C1247.832642,112.707558 1246.279785,111.878265 1243.422607,111.948898   C1229.135498,112.302063 1214.841064,112.409912 1200.558960,112.891800   C1193.839355,113.118523 1191.196655,116.209480 1191.119995,123.113579   C1191.029419,131.268616 1191.086670,139.425339 1191.088745,147.581329   C1191.095459,173.380219 1191.050293,199.179321 1191.140747,224.977921   C1191.181763,236.643097 1194.208130,241.914673 1204.521484,243.069763   C1216.302490,244.389252 1228.336914,243.613144 1240.253906,243.376968   C1242.087402,243.340637 1244.459473,241.723068 1245.580444,240.131195   C1248.401489,236.125000 1250.649780,231.715454 1253.863403,226.206131   C1240.893555,224.829666 1229.101807,223.312073 1217.262939,222.413971   C1209.167847,221.799866 1209.282959,222.181549 1209.037476,214.193802   C1208.830566,207.465286 1208.236328,200.748642 1207.826660,193.093399  M97.971527,96.935013   C79.505219,113.392204 60.960979,129.763107 42.605080,146.342529   C33.243107,154.798447 23.921404,163.339066 15.132420,172.377136   C7.468100,180.258667 2.343774,189.384094 7.051387,201.708435   C15.807341,211.019897 24.059607,220.874573 33.410175,229.544769   C66.388908,260.123871 99.645088,290.406677 133.024506,320.548859   C141.642715,328.331238 150.825851,335.565002 160.259094,342.341370   C166.797974,347.038635 174.510544,348.618256 182.586197,346.039856   C193.084244,342.688049 200.959839,335.357727 208.821899,328.227020   C241.507721,298.581818 274.177307,268.914551 306.509949,238.886185   C319.166229,227.131882 330.920746,214.406647 343.738647,201.698914   C343.947998,197.465744 344.749969,193.160843 344.248016,189.013779   C343.065826,179.247223 336.280884,172.922699 329.423737,166.742950   C309.935547,149.179886 290.486938,131.572922 270.715240,113.390648   C259.935944,103.484024 249.270203,93.450165 238.349335,83.702133   C223.841476,70.752373 209.509705,57.561550 194.397507,45.346203   C181.761246,35.132187 170.090790,35.102413 156.887451,44.595200   C147.738434,51.173042 139.216415,58.689495 130.837173,66.254990   C119.865746,76.160934 109.311203,86.528618 97.971527,96.935013  M461.688049,118.236885   C461.448883,134.344147 461.047424,150.451019 461.010254,166.558762   C460.959961,188.338196 461.168549,210.118423 461.313019,231.897995   C461.351166,237.642731 464.048553,241.509735 469.169373,241.593246   C484.440857,241.842316 499.721497,241.641449 514.995483,241.412628   C516.252319,241.393784 518.573181,239.823456 518.564636,238.992905   C518.464355,229.253708 518.308960,219.490814 517.414978,209.803665   C517.226196,207.758438 514.327271,205.133057 512.097473,204.266678   C506.106445,201.938828 499.801758,200.418152 492.821289,198.338562   C494.695587,197.670822 495.854218,197.099640 497.078400,196.849274   C502.445770,195.751602 507.810669,194.611450 513.218872,193.754120   C517.056152,193.145828 518.997253,191.683243 518.814270,187.315948   C518.473022,179.171204 518.546570,170.996765 518.792664,162.845123   C518.908875,158.995239 517.603943,157.155167 513.788086,156.336258   C508.282318,155.154694 502.892670,153.432144 497.453461,151.940460   C503.060577,149.108475 508.680786,147.717819 514.102478,145.773636   C515.719421,145.193802 517.823120,143.128876 517.917419,141.631836   C518.353455,134.711075 518.284668,127.747322 518.098999,120.806931   C518.055725,119.190353 516.848328,117.604919 516.062744,115.123123   C514.958496,114.681076 513.857117,113.862198 512.749573,113.853760   C497.217743,113.735474 481.683228,113.843475 466.153961,113.602341   C462.756866,113.549599 462.335876,115.218094 461.688049,118.236885  M598.443848,174.808624   C599.027161,170.190781 599.818359,165.588058 600.155090,160.952301   C601.191772,146.678253 599.607117,132.924423 590.443665,121.203873   C588.909424,119.241554 585.981567,117.282097 583.640442,117.211220   C566.526978,116.693169 549.398926,116.652489 532.275085,116.501358   C531.872681,116.497803 531.466125,116.964111 531.374146,117.020287   C531.374146,157.030518 531.374146,196.765869 531.374146,236.843628   C538.950317,236.843628 545.980957,236.843628 553.268066,236.843628   C554.747192,226.662460 556.182434,216.783234 557.617737,206.903992   C563.256226,215.875473 567.716919,224.960556 572.394653,233.932510   C573.110779,235.306046 574.838379,237.108383 576.081787,237.095795   C584.182251,237.013672 592.278259,236.485245 601.117249,236.067825   C599.861206,233.460648 598.863525,231.437729 597.906860,229.395660   C594.031555,221.123856 590.092896,212.880402 586.338623,204.553864   C584.815369,201.175430 585.235596,197.928131 587.284241,194.613785   C591.130920,188.390503 594.590210,181.927780 598.443848,174.808624  M678.293884,160.954651   C674.724121,148.475433 671.253784,135.966553 667.546265,123.528412   C665.416870,116.384415 661.445435,113.493378 654.128540,113.092186   C647.324036,112.719101 643.318665,115.380905 640.440063,122.243477   C639.667664,124.084869 638.874695,125.931549 638.294861,127.837746   C630.399109,153.796677 622.517639,179.759995 614.681335,205.736938   C611.669128,215.722061 608.779846,225.744278 605.467712,236.995987   C611.471741,236.995987 616.418213,236.696518 621.311951,237.076050   C626.745056,237.497421 631.354919,235.663055 633.599121,231.120102   C639.188782,219.805252 648.477112,217.839554 659.608826,219.335510   C660.753357,219.489334 662.100037,218.981522 663.067932,219.415939   C664.645569,220.124023 666.625122,221.042343 667.307007,222.427338   C669.137329,226.144989 670.255737,230.206375 671.908264,234.022369   C672.419800,235.203751 673.714478,236.868134 674.691345,236.896301   C682.748718,237.128479 690.815674,237.027557 700.489990,237.027557   C692.827271,210.835449 685.645569,186.287567 678.293884,160.954651  M883.264160,151.499847   C883.089050,167.676346 882.913879,183.852844 882.738770,200.029343   C880.680176,199.607651 880.102661,199.071762 879.602539,198.471405   C868.726257,185.417572 861.494995,170.233246 854.034851,155.146591   C847.988403,142.918777 841.630005,130.836227 835.072815,118.874084   C832.182617,113.601608 827.227539,111.731789 822.474609,113.076050   C817.924622,114.362900 816.130493,117.399261 816.133179,124.149712   C816.145081,154.296066 816.191345,184.442429 816.221558,214.588776   C816.228943,222.011230 816.222656,229.433685 816.222656,236.738876   C829.449890,238.251862 829.465759,238.253876 830.977722,226.312729   C831.207214,224.500107 831.275208,222.660095 831.309509,220.830719   C831.668884,201.684326 831.941589,182.535980 832.391968,163.391785   C832.514526,158.184402 833.153870,152.989182 833.556030,147.788376   C836.980530,151.273010 839.456360,154.951752 841.466431,158.869431   C852.335449,180.054169 863.133911,201.275482 873.859131,222.533463   C877.775269,230.295410 883.685364,236.058167 890.816650,240.935181   C895.088379,229.703323 894.704529,119.659828 890.366394,110.491760   C885.984924,115.434433 882.994385,120.653946 883.235229,127.513817   C883.503906,135.166718 883.275574,142.837082 883.264160,151.499847  M1125.128052,114.055717   C1111.067383,114.100563 1097.004883,114.052948 1082.947998,114.305573   C1081.161255,114.337669 1079.107910,115.606789 1077.679688,116.869934   C1069.622681,123.995773 1063.119263,132.301575 1058.328491,142.031143   C1052.312988,154.248123 1053.633911,167.274170 1053.071777,180.205124   C1052.122803,202.035492 1062.198242,218.542511 1077.319092,232.729568   C1079.440063,234.719635 1082.730469,236.265045 1085.604004,236.501114   C1094.212524,237.208359 1102.920654,236.742752 1111.519409,237.517731   C1122.867432,238.540497 1131.113892,233.668625 1137.669312,225.143997   C1140.803345,221.068588 1143.857910,216.834808 1146.245361,212.302383   C1151.379517,202.555695 1154.638184,192.244125 1153.991821,180.919922   C1132.636963,180.919922 1111.772827,180.919922 1090.553345,180.919922   C1091.039917,183.119690 1091.493286,184.551926 1091.656372,186.016510   C1092.279907,191.611908 1095.231079,193.777267 1100.927979,193.627243   C1108.907593,193.417084 1116.905762,193.987244 1124.897583,194.145981   C1129.293945,194.233307 1133.693604,194.161621 1139.262085,194.161621   C1137.000610,198.720032 1135.295898,201.909607 1133.808228,205.197296   C1127.189087,219.823914 1116.173828,226.246262 1099.962402,224.749222   C1091.885864,224.003403 1085.254028,221.967804 1079.965088,215.426788   C1069.444702,202.415817 1062.790161,187.944809 1064.309937,171.049118   C1065.394409,158.992783 1070.163452,147.801529 1077.563599,138.109909   C1080.528564,134.226715 1084.140259,129.460770 1088.383423,128.191376   C1100.469238,124.575729 1112.939697,123.062752 1123.423828,133.133804   C1125.221436,134.860443 1127.128906,136.514938 1129.171509,137.935684   C1134.744751,141.812271 1140.417114,145.546021 1146.050293,149.336380   C1146.651001,148.804688 1147.251831,148.272980 1147.852661,147.741287   C1145.141602,141.234955 1142.774414,134.555954 1139.620239,128.271988   C1136.610474,122.275520 1132.433594,117.037537 1125.128052,114.055717  M992.219360,162.334732   C992.533691,150.606232 992.848022,138.877716 993.174194,126.705666   C999.563660,126.705666 1004.704773,126.638870 1009.843567,126.720070   C1019.488220,126.872452 1027.377930,132.809601 1029.040161,142.304825   C1030.085327,148.275360 1029.315308,154.541550 1029.737305,160.649002   C1030.253174,168.116058 1025.842773,171.838821 1019.903503,174.584274   C1012.994446,177.778091 1006.063416,180.924530 998.901245,184.201660   C1002.348877,191.069244 1005.469727,197.851593 1009.088623,204.356857   C1014.015198,213.212891 1018.894226,222.152283 1024.632812,230.477509   C1027.868530,235.171692 1032.788696,238.704758 1036.950073,242.760864   C1037.413696,242.422546 1037.877197,242.084213 1038.340820,241.745880   C1038.101685,238.631348 1038.534668,235.271393 1037.503174,232.446136   C1033.699219,222.026611 1029.578735,211.711838 1025.202637,201.518494   C1023.872925,198.421158 1023.563416,196.397675 1026.001831,193.631180   C1030.616577,188.395676 1035.045288,182.922363 1038.928711,177.130463   C1049.140869,161.899506 1048.796753,146.214417 1039.756348,130.599930   C1036.842285,125.566803 1033.558716,120.701721 1029.976074,116.126396   C1028.698486,114.494904 1026.041748,113.062866 1024.004761,113.049721   C1011.011963,112.965797 998.016052,113.287849 985.021851,113.516876   C982.780884,113.556374 980.543396,113.789894 978.033264,113.951210   C978.033264,155.584229 978.033264,196.668976 978.033264,237.855545   C988.608276,236.353271 991.170105,234.339722 992.041443,226.662613   C992.640869,221.381134 993.194336,216.050629 993.146057,210.747696   C993.002136,194.927628 992.551453,179.110336 992.219360,162.334732  M436.728058,220.495361   C436.784271,198.189880 436.836548,175.884399 436.898651,153.578934   C436.923157,144.778763 436.936066,144.786514 444.917969,141.756332   C447.405884,140.811859 449.945557,139.957581 452.315338,138.770172   C453.302307,138.275635 454.551758,137.038971 454.581543,136.104721   C454.781555,129.823547 454.685699,123.532944 454.685699,116.558258   C434.536041,116.558258 414.312958,116.558258 393.981445,116.558258   C393.696960,119.416359 393.599274,122.425011 393.063110,125.353371   C392.008575,131.113220 393.333557,135.608627 398.526764,138.976089   C401.708893,141.039474 404.253815,144.061340 407.324158,146.328796   C409.995514,148.301651 410.883942,150.583145 410.866180,153.902847   C410.729065,179.537918 410.790649,205.174042 410.790649,230.809845   C410.790649,232.589035 410.790649,234.368240 410.790649,236.014343   C419.719940,236.014343 428.080688,236.014343 436.728973,236.014343   C436.728973,230.771851 436.728973,226.132126 436.728058,220.495361  M1259.078247,145.462250   C1259.189209,158.431061 1263.943237,168.632828 1275.936523,174.914902   C1281.531006,177.845306 1286.917969,181.235001 1292.136841,184.800400   C1296.745850,187.949173 1302.234985,191.015457 1301.939453,197.636673   C1301.550903,206.345200 1300.428711,215.020996 1299.569946,224.271347   C1293.819702,224.271347 1289.160767,224.007812 1284.547607,224.353653   C1280.772461,224.636658 1278.559570,223.483490 1276.571045,220.114838   C1272.582397,213.358185 1267.979980,206.963928 1263.439087,200.131546   C1252.950439,216.145233 1262.331055,231.957870 1272.547119,237.226974   C1287.814819,245.101578 1306.507935,240.113312 1312.437378,225.989120   C1315.090820,219.668549 1317.054077,212.646912 1317.389404,205.847656   C1318.154907,190.329254 1314.713257,176.272980 1299.043335,168.506683   C1295.469116,166.735321 1291.894775,164.891113 1288.576172,162.694321   C1283.743286,159.495331 1278.663086,156.419159 1274.643311,152.347809   C1272.623291,150.301804 1271.213745,145.632919 1272.133789,143.094757   C1274.584595,136.333755 1278.448364,130.084961 1281.756104,123.621437   C1295.182495,128.681290 1302.649780,139.447861 1311.547363,148.884796   C1312.101562,147.818649 1312.588135,147.141785 1312.825806,146.386566   C1316.688599,134.111633 1310.745850,124.048073 1305.327026,113.919029   C1304.947266,113.209305 1303.351562,112.840630 1302.319946,112.838028   C1293.822144,112.816582 1285.318237,112.771919 1276.830078,113.095535   C1274.886719,113.169624 1272.639526,114.232010 1271.141113,115.538124   C1262.385742,123.170097 1259.239014,133.252197 1259.078247,145.462250  M747.080017,149.499771   C747.080017,178.578812 747.080017,207.657852 747.080017,236.409027   C766.379700,236.409027 784.680298,236.409027 803.801941,236.409027   C799.453674,228.716293 795.418274,223.305862 786.385254,224.059891   C778.356812,224.730072 770.228271,224.200562 761.810913,224.200562   C761.810913,209.552399 761.810913,196.171783 761.810913,182.011841   C774.741394,182.011841 787.312012,182.011841 800.601074,182.011841   C800.049744,176.968750 799.590698,172.770142 799.042542,167.756027   C786.480103,167.756027 774.260498,167.756027 761.720337,167.756027   C761.720337,154.000290 761.720337,141.103378 761.720337,126.904213   C774.576904,126.904213 787.272461,126.904213 799.877319,126.904213   C799.877319,121.711540 799.877319,117.826447 799.877319,113.627747   C782.261475,113.627747 765.049316,113.627747 747.136597,113.627747   C747.136597,125.567917 747.136597,137.034592 747.080017,149.499771  M909.317322,229.368042   C909.490845,237.691605 907.800842,237.023148 917.070862,237.204681   C927.563354,237.410172 938.065002,237.426895 948.557495,237.238144   C954.056030,237.139206 959.543396,236.424728 965.332581,235.964645   C961.246948,228.346405 956.675842,223.059830 947.645203,224.062637   C943.550964,224.517288 939.335266,223.815948 935.172729,223.735016   C931.412048,223.661911 927.648926,223.719574 923.601196,223.719574   C923.601196,209.628769 923.601196,196.386871 923.601196,181.988342   C936.459045,181.988342 949.153625,181.988342 962.015991,181.988342   C962.015991,177.852371 961.901855,174.861710 962.049194,171.883987   C962.186218,169.114166 961.151428,168.034821 958.305176,168.059525   C952.309998,168.111572 946.312683,167.835968 940.315491,167.772308   C934.889587,167.714722 929.462646,167.760147 924.119995,167.760147   C924.119995,153.637772 924.119995,140.401169 924.119995,125.975929   C937.998718,125.975929 951.198669,125.975929 965.369812,125.975929   C962.018066,118.785706 959.470093,113.345375 951.434387,113.509750   C941.625427,113.710403 931.804138,113.218307 921.987976,113.205193   C917.891846,113.199715 913.794983,113.656540 909.315430,113.926224   C909.315430,152.447479 909.315430,190.425644 909.317322,229.368042  M38.855381,87.364067   C36.758259,88.691292 34.661133,90.018517 32.108185,91.634224   C37.616337,96.126076 41.262463,98.976486 44.760891,101.997925   C46.903896,103.848732 48.394272,103.850731 50.624832,101.780998   C72.932152,81.082001 95.403633,60.559998 117.730354,39.881771   C122.659065,35.316967 127.199669,30.333115 132.095978,25.362535   C127.805565,21.331625 123.729668,17.502256 118.846397,12.914344   C92.131287,37.767353 65.743362,62.315983 38.855381,87.364067  M1179.062744,130.748016   C1178.291260,123.445923 1176.778076,116.417809 1171.073486,109.459282   C1170.039673,117.097740 1168.461304,123.580147 1168.402344,130.076355   C1168.116577,161.568558 1168.233276,193.064484 1168.219971,224.559082   C1168.217163,231.236374 1171.285522,236.344620 1176.769409,241.268524   C1180.878662,204.225418 1178.233398,167.917969 1179.062744,130.748016  M201.433273,398.934021   C199.891739,398.351013 198.363159,397.300262 196.806686,397.257172   C180.856720,396.815704 164.902451,396.523956 148.948502,396.240417   C147.684082,396.217926 146.413025,396.568756 143.809677,396.932892   C148.470947,400.989227 152.202194,404.418854 156.124802,407.613495   C165.569855,415.305878 182.566315,415.012939 191.469345,407.526184   C194.649139,404.852203 197.832275,402.182159 201.433273,398.934021  z"
   id="path2"
   style="fill-opacity:1;fill:#424649" />
<path
   fill="#EC9618"
   opacity="1.000000"
   stroke="none"
   d=" M343.085968,202.123611   C330.920746,214.406647 319.166229,227.131882 306.509949,238.886185   C274.177307,268.914551 241.507721,298.581818 208.821899,328.227020   C200.959839,335.357727 193.084244,342.688049 182.586197,346.039856   C174.510544,348.618256 166.797974,347.038635 160.259094,342.341370   C150.825851,335.565002 141.642715,328.331238 133.024506,320.548859   C99.645088,290.406677 66.388908,260.123871 33.410175,229.544769   C24.059607,220.874573 15.807341,211.019897 7.393567,201.320679   C9.257485,199.996170 10.803241,199.095947 12.295956,198.115021   C15.366262,196.097351 18.408203,194.036514 21.673748,192.283905   C26.153975,197.015076 30.208868,201.686630 34.723839,205.860504   C76.287117,244.283829 117.894157,282.660126 159.612686,320.914642   C163.246567,324.246765 167.607071,326.905273 171.957123,329.276733   C173.604843,330.175049 176.771194,330.225067 178.228012,329.206573   C185.154617,324.364075 192.093063,319.423218 198.366714,313.782654   C221.634674,292.862793 244.712006,271.729034 267.727600,250.530869   C288.772675,231.147629 311.065918,213.051178 329.859772,191.061203   C334.480408,194.791031 338.783203,198.457321 343.085968,202.123611  z"
   id="path4" />
<path
   fill="#090909"
   opacity="1.000000"
   stroke="none"
   d=" M598.327271,175.186630   C594.590210,181.927780 591.130920,188.390503 587.284241,194.613785   C585.235596,197.928131 584.815369,201.175430 586.338623,204.553864   C590.092896,212.880402 594.031555,221.123856 597.906860,229.395660   C598.863525,231.437729 599.861206,233.460648 601.117249,236.067825   C592.278259,236.485245 584.182251,237.013672 576.081787,237.095795   C574.838379,237.108383 573.110779,235.306046 572.394653,233.932510   C567.716919,224.960556 563.256226,215.875473 557.617737,206.903992   C556.182434,216.783234 554.747192,226.662460 553.268066,236.843628   C545.980957,236.843628 538.950317,236.843628 531.374146,236.843628   C531.374146,196.765869 531.374146,157.030518 531.374146,117.020287   C531.466125,116.964111 531.872681,116.497803 532.275085,116.501358   C549.398926,116.652489 566.526978,116.693169 583.640442,117.211220   C585.981567,117.282097 588.909424,119.241554 590.443665,121.203873   C599.607117,132.924423 601.191772,146.678253 600.155090,160.952301   C599.818359,165.588058 599.027161,170.190781 598.327271,175.186630  M555.609497,159.494125   C555.609497,164.418213 555.609497,169.342300 555.609497,174.631393   C558.718872,174.060471 560.998535,173.718536 563.242676,173.217255   C576.604858,170.232407 578.706482,167.424408 577.311340,153.781998   C577.111755,151.830612 576.269592,149.048355 574.844055,148.275848   C569.009949,145.114212 562.834534,142.582489 555.608826,139.281708   C555.608826,146.921646 555.608826,152.709412 555.609497,159.494125  z"
   id="path6"
   style="fill:#ffffff" />
<path
   fill="#0A0A0A"
   opacity="1.000000"
   stroke="none"
   d=" M678.378906,161.347168   C685.645569,186.287567 692.827271,210.835449 700.489990,237.027557   C690.815674,237.027557 682.748718,237.128479 674.691345,236.896301   C673.714478,236.868134 672.419800,235.203751 671.908264,234.022369   C670.255737,230.206375 669.137329,226.144989 667.307007,222.427338   C666.625122,221.042343 664.645569,220.124023 663.067932,219.415939   C662.100037,218.981522 660.753357,219.489334 659.608826,219.335510   C648.477112,217.839554 639.188782,219.805252 633.599121,231.120102   C631.354919,235.663055 626.745056,237.497421 621.311951,237.076050   C616.418213,236.696518 611.471741,236.995987 605.467712,236.995987   C608.779846,225.744278 611.669128,215.722061 614.681335,205.736938   C622.517639,179.759995 630.399109,153.796677 638.294861,127.837746   C638.874695,125.931549 639.667664,124.084869 640.440063,122.243477   C643.318665,115.380905 647.324036,112.719101 654.128540,113.092186   C661.445435,113.493378 665.416870,116.384415 667.546265,123.528412   C671.253784,135.966553 674.724121,148.475433 678.378906,161.347168  M648.311523,167.828461   C647.107239,176.631012 645.902954,185.433548 644.480408,195.831497   C651.354309,193.865875 658.821777,193.954620 661.341064,190.468002   C664.775574,185.714691 661.907715,178.634033 658.854248,173.091248   C658.074890,171.676468 656.970032,170.131363 655.609863,169.418457   C653.540588,168.333786 651.118042,167.923080 648.311523,167.828461  z"
   id="path8"
   style="fill:#ffffff" />
<path
   fill="#2A2A2A"
   opacity="1.000000"
   stroke="none"
   d=" M883.263855,150.999847   C883.275574,142.837082 883.503906,135.166718 883.235229,127.513817   C882.994385,120.653946 885.984924,115.434433 890.366394,110.491760   C894.704529,119.659828 895.088379,229.703323 890.816650,240.935181   C883.685364,236.058167 877.775269,230.295410 873.859131,222.533463   C863.133911,201.275482 852.335449,180.054169 841.466431,158.869431   C839.456360,154.951752 836.980530,151.273010 833.556030,147.788376   C833.153870,152.989182 832.514526,158.184402 832.391968,163.391785   C831.941589,182.535980 831.668884,201.684326 831.309509,220.830719   C831.275208,222.660095 831.207214,224.500107 830.977722,226.312729   C829.465759,238.253876 829.449890,238.251862 816.222656,236.738876   C816.222656,229.433685 816.228943,222.011230 816.221558,214.588776   C816.191345,184.442429 816.145081,154.296066 816.133179,124.149712   C816.130493,117.399261 817.924622,114.362900 822.474609,113.076050   C827.227539,111.731789 832.182617,113.601608 835.072815,118.874084   C841.630005,130.836227 847.988403,142.918777 854.034851,155.146591   C861.494995,170.233246 868.726257,185.417572 879.602539,198.471405   C880.102661,199.071762 880.680176,199.607651 882.738770,200.029343   C882.913879,183.852844 883.089050,167.676346 883.263855,150.999847  z"
   id="path10"
   style="fill:#ffffff" />
<path
   fill="#363636"
   opacity="1.000000"
   stroke="none"
   d=" M1125.497559,114.212044   C1132.433594,117.037537 1136.610474,122.275520 1139.620239,128.271988   C1142.774414,134.555954 1145.141602,141.234955 1147.852661,147.741287   C1147.251831,148.272980 1146.651001,148.804688 1146.050293,149.336380   C1140.417114,145.546021 1134.744751,141.812271 1129.171509,137.935684   C1127.128906,136.514938 1125.221436,134.860443 1123.423828,133.133804   C1112.939697,123.062752 1100.469238,124.575729 1088.383423,128.191376   C1084.140259,129.460770 1080.528564,134.226715 1077.563599,138.109909   C1070.163452,147.801529 1065.394409,158.992783 1064.309937,171.049118   C1062.790161,187.944809 1069.444702,202.415817 1079.965088,215.426788   C1085.254028,221.967804 1091.885864,224.003403 1099.962402,224.749222   C1116.173828,226.246262 1127.189087,219.823914 1133.808228,205.197296   C1135.295898,201.909607 1137.000610,198.720032 1139.262085,194.161621   C1133.693604,194.161621 1129.293945,194.233307 1124.897583,194.145981   C1116.905762,193.987244 1108.907593,193.417084 1100.927979,193.627243   C1095.231079,193.777267 1092.279907,191.611908 1091.656372,186.016510   C1091.493286,184.551926 1091.039917,183.119690 1090.553345,180.919922   C1111.772827,180.919922 1132.636963,180.919922 1153.991821,180.919922   C1154.638184,192.244125 1151.379517,202.555695 1146.245361,212.302383   C1143.857910,216.834808 1140.803345,221.068588 1137.669312,225.143997   C1131.113892,233.668625 1122.867432,238.540497 1111.519409,237.517731   C1102.920654,236.742752 1094.212524,237.208359 1085.604004,236.501114   C1082.730469,236.265045 1079.440063,234.719635 1077.319092,232.729568   C1062.198242,218.542511 1052.122803,202.035492 1053.071777,180.205124   C1053.633911,167.274170 1052.312988,154.248123 1058.328491,142.031143   C1063.119263,132.301575 1069.622681,123.995773 1077.679688,116.869934   C1079.107910,115.606789 1081.161255,114.337669 1082.947998,114.305573   C1097.004883,114.052948 1111.067383,114.100563 1125.497559,114.212044  z"
   id="path12"
   style="fill:#ffffff" />
<path
   fill="#050505"
   opacity="1.000000"
   stroke="none"
   d=" M462.233063,117.732513   C462.335876,115.218094 462.756866,113.549599 466.153961,113.602341   C481.683228,113.843475 497.217743,113.735474 512.749573,113.853760   C513.857117,113.862198 514.958496,114.681076 515.874023,115.883469   C515.269836,121.446976 514.700562,126.243523 514.493347,131.055664   C514.357117,134.216904 512.830139,135.315018 509.910187,135.716370   C503.327087,136.621231 496.752167,137.648132 490.239716,138.953659   C488.871307,139.227997 486.914490,140.775131 486.724518,141.972977   C485.997742,146.555618 485.959808,151.242706 485.506989,155.875397   C485.234894,158.659470 486.231628,159.590607 489.073212,159.807953   C496.682373,160.389954 504.261536,161.364197 511.871185,162.624100   C512.948730,172.501099 510.415833,179.326263 500.327332,182.729462   C495.665344,184.302109 491.921692,188.596985 487.418610,191.770874   C486.576202,193.082123 485.609650,194.301498 485.663300,195.474182   C485.837860,199.289200 486.474701,203.080429 486.761017,206.893768   C486.987885,209.914886 488.529175,211.191040 491.457855,211.631836   C497.700500,212.571381 503.936035,213.628769 510.098114,214.984970   C511.708893,215.339478 514.197693,216.867035 514.299194,218.029190   C514.755920,223.255981 514.498352,228.545166 514.498352,234.801392   C497.339508,234.801392 480.684692,234.801392 463.914825,234.801392   C463.838379,233.500549 463.736755,232.515533 463.728943,231.529785   C463.506805,203.560822 463.347076,175.591232 463.051544,147.623077   C462.946259,137.657776 462.515320,127.695930 462.233063,117.732513  z"
   id="path14"
   style="fill:#ffffff" />
<path
   fill="#3F3F3F"
   opacity="1.000000"
   stroke="none"
   d=" M992.219971,162.813354   C992.551453,179.110336 993.002136,194.927628 993.146057,210.747696   C993.194336,216.050629 992.640869,221.381134 992.041443,226.662613   C991.170105,234.339722 988.608276,236.353271 978.033264,237.855545   C978.033264,196.668976 978.033264,155.584229 978.033264,113.951210   C980.543396,113.789894 982.780884,113.556374 985.021851,113.516876   C998.016052,113.287849 1011.011963,112.965797 1024.004761,113.049721   C1026.041748,113.062866 1028.698486,114.494904 1029.976074,116.126396   C1033.558716,120.701721 1036.842285,125.566803 1039.756348,130.599930   C1048.796753,146.214417 1049.140869,161.899506 1038.928711,177.130463   C1035.045288,182.922363 1030.616577,188.395676 1026.001831,193.631180   C1023.563416,196.397675 1023.872925,198.421158 1025.202637,201.518494   C1029.578735,211.711838 1033.699219,222.026611 1037.503174,232.446136   C1038.534668,235.271393 1038.101685,238.631348 1038.340820,241.745880   C1037.877197,242.084213 1037.413696,242.422546 1036.950073,242.760864   C1032.788696,238.704758 1027.868530,235.171692 1024.632812,230.477509   C1018.894226,222.152283 1014.015198,213.212891 1009.088623,204.356857   C1005.469727,197.851593 1002.348877,191.069244 998.901245,184.201660   C1006.063416,180.924530 1012.994446,177.778091 1019.903503,174.584274   C1025.842773,171.838821 1030.253174,168.116058 1029.737305,160.649002   C1029.315308,154.541550 1030.085327,148.275360 1029.040161,142.304825   C1027.377930,132.809601 1019.488220,126.872452 1009.843567,126.720070   C1004.704773,126.638870 999.563660,126.705666 993.174194,126.705666   C992.848022,138.877716 992.533691,150.606232 992.219971,162.813354  z"
   id="path16"
   style="fill:#ffffff" />
<path
   fill="#101010"
   opacity="1.000000"
   stroke="none"
   d=" M436.728516,220.993881   C436.728973,226.132126 436.728973,230.771851 436.728973,236.014343   C428.080688,236.014343 419.719940,236.014343 410.790649,236.014343   C410.790649,234.368240 410.790649,232.589035 410.790649,230.809845   C410.790649,205.174042 410.729065,179.537918 410.866180,153.902847   C410.883942,150.583145 409.995514,148.301651 407.324158,146.328796   C404.253815,144.061340 401.708893,141.039474 398.526764,138.976089   C393.333557,135.608627 392.008575,131.113220 393.063110,125.353371   C393.599274,122.425011 393.696960,119.416359 393.981445,116.558258   C414.312958,116.558258 434.536041,116.558258 454.685699,116.558258   C454.685699,123.532944 454.781555,129.823547 454.581543,136.104721   C454.551758,137.038971 453.302307,138.275635 452.315338,138.770172   C449.945557,139.957581 447.405884,140.811859 444.917969,141.756332   C436.936066,144.786514 436.923157,144.778763 436.898651,153.578934   C436.836548,175.884399 436.784271,198.189880 436.728516,220.993881  z"
   id="path18"
   style="fill:#ffffff" />
<path
   fill="#464646"
   opacity="1.000000"
   stroke="none"
   d=" M1259.078613,144.992828   C1259.239014,133.252197 1262.385742,123.170097 1271.141113,115.538124   C1272.639526,114.232010 1274.886719,113.169624 1276.830078,113.095535   C1285.318237,112.771919 1293.822144,112.816582 1302.319946,112.838028   C1303.351562,112.840630 1304.947266,113.209305 1305.327026,113.919029   C1310.745850,124.048073 1316.688599,134.111633 1312.825806,146.386566   C1312.588135,147.141785 1312.101562,147.818649 1311.547363,148.884796   C1302.649780,139.447861 1295.182495,128.681290 1281.756104,123.621437   C1278.448364,130.084961 1274.584595,136.333755 1272.133789,143.094757   C1271.213745,145.632919 1272.623291,150.301804 1274.643311,152.347809   C1278.663086,156.419159 1283.743286,159.495331 1288.576172,162.694321   C1291.894775,164.891113 1295.469116,166.735321 1299.043335,168.506683   C1314.713257,176.272980 1318.154907,190.329254 1317.389404,205.847656   C1317.054077,212.646912 1315.090820,219.668549 1312.437378,225.989120   C1306.507935,240.113312 1287.814819,245.101578 1272.547119,237.226974   C1262.331055,231.957870 1252.950439,216.145233 1263.439087,200.131546   C1267.979980,206.963928 1272.582397,213.358185 1276.571045,220.114838   C1278.559570,223.483490 1280.772461,224.636658 1284.547607,224.353653   C1289.160767,224.007812 1293.819702,224.271347 1299.569946,224.271347   C1300.428711,215.020996 1301.550903,206.345200 1301.939453,197.636673   C1302.234985,191.015457 1296.745850,187.949173 1292.136841,184.800400   C1286.917969,181.235001 1281.531006,177.845306 1275.936523,174.914902   C1263.943237,168.632828 1259.189209,158.431061 1259.078613,144.992828  z"
   id="path20"
   style="fill:#ffffff" />
<path
   fill="#393939"
   opacity="1.000000"
   stroke="none"
   d=" M747.108276,149.000519   C747.136597,137.034592 747.136597,125.567917 747.136597,113.627747   C765.049316,113.627747 782.261475,113.627747 799.877319,113.627747   C799.877319,117.826447 799.877319,121.711540 799.877319,126.904213   C787.272461,126.904213 774.576904,126.904213 761.720337,126.904213   C761.720337,141.103378 761.720337,154.000290 761.720337,167.756027   C774.260498,167.756027 786.480103,167.756027 799.042542,167.756027   C799.590698,172.770142 800.049744,176.968750 800.601074,182.011841   C787.312012,182.011841 774.741394,182.011841 761.810913,182.011841   C761.810913,196.171783 761.810913,209.552399 761.810913,224.200562   C770.228271,224.200562 778.356812,224.730072 786.385254,224.059891   C795.418274,223.305862 799.453674,228.716293 803.801941,236.409027   C784.680298,236.409027 766.379700,236.409027 747.080017,236.409027   C747.080017,207.657852 747.080017,178.578812 747.108276,149.000519  z"
   id="path22"
   style="fill:#ffffff" />
<path
   fill="#E7CD44"
   opacity="1.000000"
   stroke="none"
   d=" M98.577339,96.697693   C109.311203,86.528618 119.865746,76.160934 130.837173,66.254990   C139.216415,58.689495 147.738434,51.173042 156.887451,44.595200   C170.090790,35.102413 181.761246,35.132187 194.397507,45.346203   C209.509705,57.561550 223.841476,70.752373 238.349335,83.702133   C249.270203,93.450165 259.935944,103.484024 270.569916,113.837753   C266.596283,117.902107 262.768005,121.519356 258.635284,124.991348   C250.853302,118.044212 243.383957,111.233269 235.896210,104.442635   C224.981705,94.544273 214.053970,84.660530 202.967865,74.484680   C194.559967,67.799828 186.368576,61.330593 178.010971,55.083752   C176.863739,54.226257 174.341537,53.681671 173.389114,54.340752   C167.684769,58.288139 162.253616,62.630325 156.429031,66.975693   C143.066818,78.737030 130.006439,90.362823 116.550987,101.984848   C110.296387,100.219948 104.436867,98.458824 98.577339,96.697693  z"
   id="path24" />
<path
   fill="#3D3D3D"
   opacity="1.000000"
   stroke="none"
   d=" M909.316406,228.885925   C909.315430,190.425644 909.315430,152.447479 909.315430,113.926224   C913.794983,113.656540 917.891846,113.199715 921.987976,113.205193   C931.804138,113.218307 941.625427,113.710403 951.434387,113.509750   C959.470093,113.345375 962.018066,118.785706 965.369812,125.975929   C951.198669,125.975929 937.998718,125.975929 924.119995,125.975929   C924.119995,140.401169 924.119995,153.637772 924.119995,167.760147   C929.462646,167.760147 934.889587,167.714722 940.315491,167.772308   C946.312683,167.835968 952.309998,168.111572 958.305176,168.059525   C961.151428,168.034821 962.186218,169.114166 962.049194,171.883987   C961.901855,174.861710 962.015991,177.852371 962.015991,181.988342   C949.153625,181.988342 936.459045,181.988342 923.601196,181.988342   C923.601196,196.386871 923.601196,209.628769 923.601196,223.719574   C927.648926,223.719574 931.412048,223.661911 935.172729,223.735016   C939.335266,223.815948 943.550964,224.517288 947.645203,224.062637   C956.675842,223.059830 961.246948,228.346405 965.332581,235.964645   C959.543396,236.424728 954.056030,237.139206 948.557495,237.238144   C938.065002,237.426895 927.563354,237.410172 917.070862,237.204681   C907.800842,237.023148 909.490845,237.691605 909.316406,228.885925  z"
   id="path26"
   style="fill:#ffffff" />
<path
   fill="#2D8ECD"
   opacity="1.000000"
   stroke="none"
   d=" M114.829559,49.890587   C126.544319,39.365250 137.862030,28.350483 150.076569,18.441179   C164.623825,6.639400 180.758286,6.001657 196.056458,16.675999   C207.568192,24.708353 217.988632,34.325047 228.736374,43.423679   C234.308441,48.140793 239.536484,53.264309 244.746017,58.683796   C242.682571,65.163300 240.793030,71.163231 238.903503,77.163162   C228.374237,67.721230 218.007324,58.089081 207.253098,48.910736   C201.076981,43.639614 194.597961,38.567383 187.669968,34.372288   C178.800232,29.001396 169.189896,29.324188 160.857956,35.456581   C150.294998,43.231033 140.321274,51.818024 130.242691,60.233368   C125.517799,64.178520 121.142509,68.542358 116.295723,72.362587   C115.990173,67.931488 116.150055,63.847027 115.957382,59.779263   C115.800766,56.472649 115.221428,53.186058 114.829559,49.890587  z"
   id="path28" />
<path
   fill="#EAB933"
   opacity="1.000000"
   stroke="none"
   d=" M98.274429,96.816353   C104.436867,98.458824 110.296387,100.219948 116.456078,102.305489   C98.832642,119.076012 80.909042,135.522125 62.657440,152.052109   C55.940613,157.917633 49.360706,163.504318 43.212025,169.530975   C35.771347,176.824005 28.695534,184.489273 21.461824,191.993454   C18.408203,194.036514 15.366262,196.097351 12.295956,198.115021   C10.803241,199.095947 9.257485,199.996170 7.389017,200.970917   C2.343774,189.384094 7.468100,180.258667 15.132420,172.377136   C23.921404,163.339066 33.243107,154.798447 42.605080,146.342529   C60.960979,129.763107 79.505219,113.392204 98.274429,96.816353  z"
   id="path30" />
<path
   fill="#ECB833"
   opacity="1.000000"
   stroke="none"
   d=" M39.105408,87.114342   C65.743362,62.315983 92.131287,37.767353 118.846397,12.914344   C123.729668,17.502256 127.805565,21.331625 132.095978,25.362535   C127.199669,30.333115 122.659065,35.316967 117.730354,39.881771   C95.403633,60.559998 72.932152,81.082001 50.624832,101.780998   C48.394272,103.850731 46.903896,103.848732 44.760891,101.997925   C41.262463,98.976486 37.616337,96.126076 32.108185,91.634224   C34.661133,90.018517 36.758259,88.691292 39.105408,87.114342  z"
   id="path32" />
<path
   fill="#9F9F9F"
   opacity="1.000000"
   stroke="none"
   d=" M511.852600,162.182617   C504.261536,161.364197 496.682373,160.389954 489.073212,159.807953   C486.231628,159.590607 485.234894,158.659470 485.506989,155.875397   C485.959808,151.242706 485.997742,146.555618 486.724518,141.972977   C486.914490,140.775131 488.871307,139.227997 490.239716,138.953659   C496.752167,137.648132 503.327087,136.621231 509.910187,135.716370   C512.830139,135.315018 514.357117,134.216904 514.493347,131.055664   C514.700562,126.243523 515.269836,121.446976 515.930908,116.324478   C516.848328,117.604919 518.055725,119.190353 518.098999,120.806931   C518.284668,127.747322 518.353455,134.711075 517.917419,141.631836   C517.823120,143.128876 515.719421,145.193802 514.102478,145.773636   C508.680786,147.717819 503.060577,149.108475 497.453461,151.940460   C502.892670,153.432144 508.282318,155.154694 513.788086,156.336258   C517.603943,157.155167 518.908875,158.995239 518.792664,162.845123   C518.546570,170.996765 518.473022,179.171204 518.814270,187.315948   C518.997253,191.683243 517.056152,193.145828 513.218872,193.754120   C507.810669,194.611450 502.445770,195.751602 497.078400,196.849274   C495.854218,197.099640 494.695587,197.670822 492.821289,198.338562   C499.801758,200.418152 506.106445,201.938828 512.097473,204.266678   C514.327271,205.133057 517.226196,207.758438 517.414978,209.803665   C518.308960,219.490814 518.464355,229.253708 518.564636,238.992905   C518.573181,239.823456 516.252319,241.393784 514.995483,241.412628   C499.721497,241.641449 484.440857,241.842316 469.169373,241.593246   C464.048553,241.509735 461.351166,237.642731 461.313019,231.897995   C461.168549,210.118423 460.959961,188.338196 461.010254,166.558762   C461.047424,150.451019 461.448883,134.344147 461.960571,117.984695   C462.515320,127.695930 462.946259,137.657776 463.051544,147.623077   C463.347076,175.591232 463.506805,203.560822 463.728943,231.529785   C463.736755,232.515533 463.838379,233.500549 463.914825,234.801392   C480.684692,234.801392 497.339508,234.801392 514.498352,234.801392   C514.498352,228.545166 514.755920,223.255981 514.299194,218.029190   C514.197693,216.867035 511.708893,215.339478 510.098114,214.984970   C503.936035,213.628769 497.700500,212.571381 491.457855,211.631836   C488.529175,211.191040 486.987885,209.914886 486.761017,206.893768   C486.474701,203.080429 485.837860,199.289200 485.663300,195.474182   C485.609650,194.301498 486.576202,193.082123 487.834839,191.937576   C496.564270,190.799042 504.520264,189.496307 512.511963,188.472458   C515.487488,188.091263 516.319946,186.727173 516.243835,183.921234   C516.087158,178.143646 516.086731,172.355545 516.247375,166.578033   C516.337524,163.336624 514.922485,162.043762 511.852600,162.182617  z"
   id="path34" />
<path
   fill="#848484"
   opacity="1.000000"
   stroke="none"
   d=" M1207.813477,194.026749   C1208.236328,200.748642 1208.830566,207.465286 1209.037476,214.193802   C1209.282959,222.181549 1209.167847,221.799866 1217.262939,222.413971   C1229.101807,223.312073 1240.893555,224.829666 1253.863403,226.206131   C1250.649780,231.715454 1248.401489,236.125000 1245.580444,240.131195   C1244.459473,241.723068 1242.087402,243.340637 1240.253906,243.376968   C1228.336914,243.613144 1216.302490,244.389252 1204.521484,243.069763   C1194.208130,241.914673 1191.181763,236.643097 1191.140747,224.977921   C1191.050293,199.179321 1191.095459,173.380219 1191.088745,147.581329   C1191.086670,139.425339 1191.029419,131.268616 1191.119995,123.113579   C1191.196655,116.209480 1193.839355,113.118523 1200.558960,112.891800   C1214.841064,112.409912 1229.135498,112.302063 1243.422607,111.948898   C1246.279785,111.878265 1247.832642,112.707558 1247.733276,115.844391   C1247.614014,119.614471 1247.705200,123.391228 1247.705200,126.805344   C1238.764160,126.805344 1230.171265,126.805344 1221.487915,126.174126   C1225.324951,124.969963 1229.264404,124.467636 1233.176514,123.803719   C1236.896240,123.172447 1240.587280,122.372292 1244.291016,121.646400   C1229.616699,117.412094 1214.997314,115.705360 1199.588379,118.312088   C1199.588379,157.777847 1199.588379,196.821472 1199.588379,235.779663   C1214.165283,235.779663 1228.407471,235.779663 1242.769287,235.779663   C1242.769287,233.419144 1242.769287,231.535828 1242.769287,229.354034   C1230.833252,228.598175 1219.263550,227.865509 1207.813477,227.140411   C1207.813477,215.780075 1207.813477,204.903412 1207.813477,194.026749  z"
   id="path36"
   style="fill:#ffffff" />
<path
   fill="#272727"
   opacity="1.000000"
   stroke="none"
   d=" M1207.820068,193.560074   C1207.813477,204.903412 1207.813477,215.780075 1207.813477,227.140411   C1219.263550,227.865509 1230.833252,228.598175 1242.769287,229.354034   C1242.769287,231.535828 1242.769287,233.419144 1242.769287,235.779663   C1228.407471,235.779663 1214.165283,235.779663 1199.588379,235.779663   C1199.588379,196.821472 1199.588379,157.777847 1199.588379,118.312088   C1214.997314,115.705360 1229.616699,117.412094 1244.291016,121.646400   C1240.587280,122.372292 1236.896240,123.172447 1233.176514,123.803719   C1229.264404,124.467636 1225.324951,124.969963 1221.180298,125.898560   C1216.828491,126.254211 1212.693848,126.254211 1208.310913,126.254211   C1208.310913,140.468506 1208.310913,153.876068 1208.310913,168.265015   C1221.406250,168.265015 1234.410889,168.265015 1248.228516,168.265015   C1246.588013,172.752960 1245.631470,176.259384 1243.985840,179.405334   C1243.382812,180.558197 1241.156494,181.427628 1239.654053,181.453217   C1229.360718,181.628479 1219.062866,181.545166 1207.826660,181.545166   C1207.826660,185.604416 1207.826660,189.348907 1207.820068,193.560074  z"
   id="path38"
   style="fill:#e9afaf" />
<path
   fill="#EAB732"
   opacity="1.000000"
   stroke="none"
   d=" M258.939697,125.136612   C262.768005,121.519356 266.596283,117.902107 270.723663,114.134048   C290.486938,131.572922 309.935547,149.179886 329.423737,166.742950   C336.280884,172.922699 343.065826,179.247223 344.248016,189.013779   C344.749969,193.160843 343.947998,197.465744 343.412292,201.911255   C338.783203,198.457321 334.480408,194.791031 329.713654,190.732254   C318.195404,180.206680 307.141144,170.073608 295.937103,159.636719   C284.216766,148.832962 272.646240,138.333023 260.956573,127.565788   C260.204865,126.577873 259.572266,125.857239 258.939697,125.136612  z"
   id="path40" />
<path
   fill="#343684"
   opacity="1.000000"
   stroke="none"
   d=" M270.003723,47.032127   C274.423462,46.703335 278.843231,46.374538 283.829712,46.003586   C283.829712,52.980751 283.733124,59.265095 283.855530,65.545166   C283.991760,72.533127 284.514282,79.517242 284.512207,86.502937   C284.510773,91.372810 286.348267,95.199074 289.754974,98.429665   C301.472321,109.541298 313.212830,120.628479 324.927704,131.742676   C326.196625,132.946518 327.356049,134.265717 329.328522,136.328583   C315.248688,136.200623 302.396393,136.997177 292.185303,126.306938   C284.608398,118.374496 276.231384,111.206299 268.362244,103.147552   C274.387878,84.219856 274.665741,65.692223 270.003723,47.032127  z"
   id="path42" />
<path
   fill="#515151"
   opacity="1.000000"
   stroke="none"
   d=" M1179.069458,131.221725   C1178.233398,167.917969 1180.878662,204.225418 1176.769409,241.268524   C1171.285522,236.344620 1168.217163,231.236374 1168.219971,224.559082   C1168.233276,193.064484 1168.116577,161.568558 1168.402344,130.076355   C1168.461304,123.580147 1170.039673,117.097740 1171.073486,109.459282   C1176.778076,116.417809 1178.291260,123.445923 1179.069458,131.221725  z"
   id="path44"
   style="fill:#ffffff" />
<path
   fill="#343684"
   opacity="1.000000"
   stroke="none"
   d=" M86.985565,98.943039   C74.517197,110.169632 62.176109,121.544098 49.463623,132.487106   C47.163876,134.466751 43.391151,135.309326 40.208946,135.565643   C34.285351,136.042786 28.295916,135.702530 21.536827,135.702530   C38.708179,117.338753 57.682270,101.369568 76.648346,85.116058   C80.407562,89.871201 83.696564,94.407120 86.985565,98.943039  z"
   id="path46" />
<path
   fill="#146CB2"
   opacity="1.000000"
   stroke="none"
   d=" M269.554932,46.962749   C274.665741,65.692223 274.387878,84.219856 268.230713,102.842041   C258.376221,94.636246 248.804764,86.185822 239.068405,77.449280   C240.793030,71.163231 242.682571,65.163300 244.909515,58.978561   C249.372955,62.023994 253.498978,65.254234 258.230591,68.958611   C259.263763,61.318634 260.187500,54.487926 261.214539,46.893372   C263.899017,46.893372 266.502563,46.893372 269.554932,46.962749  z"
   id="path48" />
<path
   fill="#EAD049"
   opacity="1.000000"
   stroke="none"
   d=" M179.959534,356.158020   C196.708511,356.189392 213.457520,356.241821 230.206467,356.231506   C232.999588,356.229797 234.209534,357.397949 233.783188,360.179901   C233.360001,362.941071 232.934448,365.701843 232.287277,369.910706   C203.157928,369.910706 173.984802,369.910706 144.497498,369.429260   C149.837601,368.298401 155.477646,367.325745 161.149521,367.076141   C169.450928,366.710724 176.588165,364.803802 179.959534,356.158020  z"
   id="path50" />
<path
   fill="#1376BB"
   opacity="1.000000"
   stroke="none"
   d=" M87.306686,98.849396   C83.696564,94.407120 80.407562,89.871201 76.973763,85.003372   C89.290039,73.159691 101.751129,61.647903 114.520882,50.013355   C115.221428,53.186058 115.800766,56.472649 115.957382,59.779263   C116.150055,63.847027 115.990173,67.931488 115.981720,72.472916   C106.529778,81.543320 97.078789,90.149529 87.306686,98.849396  z"
   id="path52" />
<path
   fill="#EEA024"
   opacity="1.000000"
   stroke="none"
   d=" M179.503113,356.066376   C176.588165,364.803802 169.450928,366.710724 161.149521,367.076141   C155.477646,367.325745 149.837601,368.298401 144.036636,369.305969   C143.471695,369.707092 143.053436,369.750031 142.002258,369.509583   C138.249069,369.394257 135.128815,369.562317 132.008560,369.730408   C126.696373,369.730408 121.384178,369.730408 115.516907,369.730408   C115.516907,365.243042 115.516907,360.687592 115.516907,355.974762   C136.553726,355.974762 157.800217,355.974762 179.503113,356.066376  z"
   id="path54" />
<path
   fill="#EAD049"
   opacity="1.000000"
   stroke="none"
   d=" M150.987228,375.433136   C171.767471,375.324249 192.547684,375.211609 213.327957,375.109467   C217.617722,375.088379 221.907700,375.106445 226.625626,375.106445   C226.902344,379.822235 227.149231,384.029816 227.440033,388.985565   C213.008972,388.985565 198.941360,388.985565 184.348846,388.575562   C179.233932,385.398193 174.918930,381.894531 169.983749,380.051239   C163.922241,377.787170 157.342789,376.909882 150.987228,375.433136  z"
   id="path56" />
<path
   fill="#EF8E0F"
   opacity="1.000000"
   stroke="none"
   d=" M150.522888,375.367279   C157.342789,376.909882 163.922241,377.787170 169.983749,380.051239   C174.918930,381.894531 179.233932,385.398193 183.883514,388.490906   C162.753311,388.816254 141.563553,388.816254 120.165222,388.816254   C120.165222,384.313354 120.165222,380.072601 120.165222,375.301422   C130.292480,375.301422 140.175522,375.301422 150.522888,375.367279  z"
   id="path58" />
<path
   fill="#ECB833"
   opacity="1.000000"
   stroke="none"
   d=" M201.223587,399.222168   C197.832275,402.182159 194.649139,404.852203 191.469345,407.526184   C182.566315,415.012939 165.569855,415.305878 156.124802,407.613495   C152.202194,404.418854 148.470947,400.989227 143.809677,396.932892   C146.413025,396.568756 147.684082,396.217926 148.948502,396.240417   C164.902451,396.523956 180.856720,396.815704 196.806686,397.257172   C198.363159,397.300262 199.891739,398.351013 201.223587,399.222168  z"
   id="path60" />
<path
   fill="#EAD049"
   opacity="1.000000"
   stroke="none"
   d=" M132.451172,369.839874   C135.128815,369.562317 138.249069,369.394257 141.689545,369.454773   C138.971115,369.772003 135.932465,369.860687 132.451172,369.839874  z"
   id="path62" />
<path
   fill="#235399"
   opacity="1.000000"
   stroke="none"
   d=" M296.086914,159.940536   C307.141144,170.073608 318.195404,180.206680 329.395782,190.668701   C311.065918,213.051178 288.772675,231.147629 267.727600,250.530869   C244.712006,271.729034 221.634674,292.862793 198.366714,313.782654   C192.093063,319.423218 185.154617,324.364075 178.228012,329.206573   C176.771194,330.225067 173.604843,330.175049 171.957123,329.276733   C167.607071,326.905273 163.246567,324.246765 159.612686,320.914642   C117.894157,282.660126 76.287117,244.283829 34.723839,205.860504   C30.208868,201.686630 26.153975,197.015076 21.673748,192.283905   C28.695534,184.489273 35.771347,176.824005 43.212025,169.530975   C49.360706,163.504318 55.940613,157.917633 62.665359,152.504059   C63.331757,158.488678 63.479351,164.123398 64.035286,169.717545   C64.883820,178.256195 65.455193,186.878754 67.134117,195.267578   C71.540764,217.285568 84.759094,234.060135 100.180855,249.705429   C100.649475,248.947067 100.889458,248.710434 100.953514,248.433151   C103.628822,236.851746 105.700378,225.087219 109.161583,213.746689   C111.380775,206.475555 114.606705,199.109833 121.920776,195.312927   C120.541405,199.723450 119.166084,203.751343 117.552048,208.059692   C115.890930,213.216644 114.468513,218.093155 112.995636,223.436676   C112.415962,233.432480 113.445930,242.772125 116.427353,251.858414   C122.689453,270.943054 134.809265,285.901703 149.761459,298.798737   C154.709137,303.066376 159.932770,307.014099 165.717819,311.660339   C168.295578,302.166840 170.655914,293.730499 172.829697,285.246399   C173.251068,283.601807 172.944412,281.770691 172.984344,279.613922   C171.351547,273.866394 170.197220,268.312531 167.940399,263.250122   C165.132507,256.951538 161.414154,251.058868 158.064453,244.569855   C156.480515,233.068710 154.921082,221.988617 153.521484,210.469788   C154.926773,199.784897 156.172211,189.538727 157.564835,178.970123   C158.243713,176.763550 158.775391,174.879440 159.583359,172.016296   C160.669357,175.354584 161.417145,177.653229 162.088638,180.372833   C164.083908,199.463837 167.895279,217.533524 179.168976,233.028183   C179.703354,233.024994 180.237717,233.021820 180.772095,233.018646   C183.537140,223.687881 186.302200,214.357117 189.259277,204.688965   C193.356323,186.135925 195.600250,167.762894 194.764557,148.627686   C194.503891,139.379807 194.165131,130.594986 194.123764,122.051445   C196.985367,131.234695 199.549576,140.176682 202.093323,149.547928   C202.338196,153.273193 202.682907,156.565002 202.855896,159.865829   C203.942505,180.599838 200.660889,200.807388 195.245468,221.067047   C192.942032,226.890778 191.027786,232.510880 188.640884,237.922501   C187.191742,241.208008 188.158844,242.683960 191.209991,243.875214   C195.194702,245.430939 199.060410,247.291519 202.908173,249.366745   C197.707703,258.396698 192.609543,267.100647 187.436707,275.760040   C180.873383,286.747131 175.036163,298.017273 172.849930,311.087158   C171.649292,313.861572 170.218567,316.438080 170.125092,319.062256   C170.068176,320.659943 171.857574,323.398315 173.211823,323.671722   C174.589706,323.949921 177.023743,322.182617 177.947693,320.670776   C178.971039,318.996338 178.807220,316.596405 179.371582,314.214905   C185.519989,299.791779 195.953659,289.233704 206.893616,278.976898   C213.627655,272.663361 219.842575,265.796173 226.559052,258.976929   C231.894150,249.526932 236.960754,240.277618 242.286438,231.278519   C242.545532,240.848312 242.545532,250.167892 242.545532,260.465424   C248.539520,255.585114 253.959579,251.351288 259.179901,246.884048   C269.716614,237.867386 279.088806,227.851303 284.852600,214.999252   C292.702026,197.496704 294.480988,178.730469 296.086914,159.940536  z"
   id="path64" />
<path
   fill="#E5E5E5"
   opacity="1.000000"
   stroke="none"
   d=" M555.609131,158.995636   C555.608826,152.709412 555.608826,146.921646 555.608826,139.281708   C562.834534,142.582489 569.009949,145.114212 574.844055,148.275848   C576.269592,149.048355 577.111755,151.830612 577.311340,153.781998   C578.706482,167.424408 576.604858,170.232407 563.242676,173.217255   C560.998535,173.718536 558.718872,174.060471 555.609497,174.631393   C555.609497,169.342300 555.609497,164.418213 555.609131,158.995636  z"
   id="path66"
   style="fill:#916f6f" />
<path
   fill="#BDBDBD"
   opacity="1.000000"
   stroke="none"
   d=" M648.578491,167.527298   C651.118042,167.923080 653.540588,168.333786 655.609863,169.418457   C656.970032,170.131363 658.074890,171.676468 658.854248,173.091248   C661.907715,178.634033 664.775574,185.714691 661.341064,190.468002   C658.821777,193.954620 651.354309,193.865875 644.480408,195.831497   C645.902954,185.433548 647.107239,176.631012 648.578491,167.527298  z"
   id="path68"
   style="fill:#6c5353" />
<path
   fill="#515151"
   opacity="1.000000"
   stroke="none"
   d=" M511.871185,162.624100   C514.922485,162.043762 516.337524,163.336624 516.247375,166.578033   C516.086731,172.355545 516.087158,178.143646 516.243835,183.921234   C516.319946,186.727173 515.487488,188.091263 512.511963,188.472458   C504.520264,189.496307 496.564270,190.799042 488.177856,191.824326   C491.921692,188.596985 495.665344,184.302109 500.327332,182.729462   C510.415833,179.326263 512.948730,172.501099 511.871185,162.624100  z"
   id="path70"
   style="fill:#916f6f" />
<path
   fill="#1073B7"
   opacity="1.000000"
   stroke="none"
   d=" M121.924835,194.930283   C114.606705,199.109833 111.380775,206.475555 109.161583,213.746689   C105.700378,225.087219 103.628822,236.851746 100.953514,248.433151   C100.889458,248.710434 100.649475,248.947067 100.180855,249.705429   C84.759094,234.060135 71.540764,217.285568 67.134117,195.267578   C65.455193,186.878754 64.883820,178.256195 64.035286,169.717545   C63.479351,164.123398 63.331757,158.488678 62.993362,152.420181   C80.909042,135.522125 98.832642,119.076012 116.851151,102.309265   C130.006439,90.362823 143.066818,78.737030 156.840073,67.027946   C161.381958,67.962387 165.339371,68.662415 168.984207,70.135773   C170.730423,70.841637 172.814987,72.832672 173.145447,74.549759   C174.544342,81.818230 175.341995,89.202408 176.404877,96.932144   C176.145279,99.101677 176.069366,100.961006 175.496384,102.651894   C172.655029,111.037018 169.682465,119.377701 166.494720,127.959877   C165.670715,129.194809 165.116241,130.208496 164.544312,131.212280   C157.687241,143.247101 150.827545,155.280441 143.703888,167.440735   C137.447601,175.327759 131.455963,183.088226 125.159042,190.929230   C123.877472,192.316589 122.901154,193.623428 121.924835,194.930283  M156.156158,136.614487   C157.232727,134.744949 158.355942,132.900528 159.378372,131.001831   C166.451141,117.867371 171.210541,104.051727 172.020599,89.008209   C172.241226,84.910851 170.454315,83.576225 166.697205,84.037033   C156.192520,85.325424 146.330246,88.244003 137.688126,94.711472   C125.052040,104.167877 116.860764,116.799576 111.083214,131.211273   C106.350357,143.017090 105.246536,154.970871 109.918083,167.080063   C111.717033,171.743149 113.647934,176.355316 115.730026,181.514267   C122.070824,176.359253 128.366089,172.548874 132.927246,167.246750   C141.115326,157.728485 148.261627,147.314026 156.156158,136.614487  z"
   id="path72" />
<path
   fill="#379FD8"
   opacity="1.000000"
   stroke="none"
   d=" M202.113785,149.118652   C199.549576,140.176682 196.985367,131.234695 194.000824,121.694199   C192.553268,114.841667 191.526047,108.587646 190.616425,101.919006   C192.300095,91.402863 197.268127,82.879013 203.131882,74.770554   C214.053970,84.660530 224.981705,94.544273 235.896210,104.442635   C243.383957,111.233269 250.853302,118.044212 258.635284,124.991348   C259.572266,125.857239 260.204865,126.577873 260.941711,128.016724   C261.032349,138.492126 261.307404,148.260071 260.943695,158.004181   C260.230560,177.109940 249.651871,191.057800 236.421234,203.954193   C235.738678,202.972092 235.226883,202.346359 234.833710,201.653336   C229.010666,191.389297 223.342102,181.033615 217.299789,170.900696   C215.684708,168.192230 212.938782,166.158096 210.484818,163.581512   C207.542999,158.605316 204.828384,153.861984 202.113785,149.118652  z"
   id="path74" />
<path
   fill="#24599E"
   opacity="1.000000"
   stroke="none"
   d=" M202.967865,74.484673   C197.268127,82.879013 192.300095,91.402863 190.447021,101.593140   C187.717148,93.748055 185.274261,85.814217 182.831375,77.880379   C182.417404,77.976517 182.003418,78.072647 181.589432,78.168777   C179.846085,84.293953 178.102737,90.419121 176.359390,96.544296   C175.341995,89.202408 174.544342,81.818230 173.145447,74.549759   C172.814987,72.832672 170.730423,70.841637 168.984207,70.135773   C165.339371,68.662415 161.381958,67.962387 157.141907,66.892410   C162.253616,62.630325 167.684769,58.288139 173.389114,54.340752   C174.341537,53.681671 176.863739,54.226257 178.010971,55.083752   C186.368576,61.330593 194.559967,67.799828 202.967865,74.484673  z"
   id="path76" />
<path
   fill="#1073B7"
   opacity="1.000000"
   stroke="none"
   d=" M210.712021,163.814377   C212.938782,166.158096 215.684708,168.192230 217.299789,170.900696   C223.342102,181.033615 229.010666,191.389297 234.833710,201.653336   C235.226883,202.346359 235.738678,202.972092 236.421234,203.954193   C249.651871,191.057800 260.230560,177.109940 260.943695,158.004181   C261.307404,148.260071 261.032349,138.492126 261.060852,128.284012   C272.646240,138.333023 284.216766,148.832962 295.937103,159.636719   C294.480988,178.730469 292.702026,197.496704 284.852600,214.999252   C279.088806,227.851303 269.716614,237.867386 259.179901,246.884048   C253.959579,251.351288 248.539520,255.585114 242.545532,260.465424   C242.545532,250.167892 242.545532,240.848312 242.211258,230.890808   C240.143692,229.659744 238.450455,228.772888 236.669388,228.529892   C231.806152,227.866394 226.905869,227.474457 222.045135,226.510330   C221.446503,218.126358 221.561432,210.061249 220.033539,202.320419   C217.478577,189.376068 213.874512,176.638809 210.712021,163.814377  z"
   id="path78" />
<path
   fill="#ACC90B"
   opacity="1.000000"
   stroke="none"
   d=" M143.968536,167.314178   C150.827545,155.280441 157.687241,143.247101 164.544312,131.212280   C165.116241,130.208496 165.670715,129.194809 166.671371,128.275940   C176.301804,135.274353 185.494141,142.182541 194.686478,149.090729   C195.600250,167.762894 193.356323,186.135925 188.910187,204.644806   C181.574310,198.284683 174.802597,191.607468 167.969406,184.993805   C166.130539,183.214020 164.104858,181.627243 162.164932,179.951859   C161.417145,177.653229 160.669357,175.354584 159.583359,172.016296   C158.775391,174.879440 158.243713,176.763550 157.191223,178.869186   C152.436447,175.165192 148.202499,171.239685 143.968536,167.314178  z"
   id="path80" />
<path
   fill="#019C3E"
   opacity="1.000000"
   stroke="none"
   d=" M172.973587,280.025635   C172.944412,281.770691 173.251068,283.601807 172.829697,285.246399   C170.655914,293.730499 168.295578,302.166840 165.717819,311.660339   C159.932770,307.014099 154.709137,303.066376 149.761459,298.798737   C134.809265,285.901703 122.689453,270.943054 116.427353,251.858414   C113.445930,242.772125 112.415962,233.432480 113.290237,223.593246   C118.587173,228.830460 123.250275,234.673309 128.553482,239.861908   C138.375778,249.471970 148.498901,258.779877 158.646393,268.049805   C163.237488,272.243866 168.186783,276.045807 172.973587,280.025635  z"
   id="path82" />
<path
   fill="#EAAE29"
   opacity="1.000000"
   stroke="none"
   d=" M222.020248,226.974960   C226.905869,227.474457 231.806152,227.866394 236.669388,228.529892   C238.450455,228.772888 240.143692,229.659744 241.952179,230.640610   C236.960754,240.277618 231.894150,249.526932 226.165161,258.929688   C223.845001,258.394531 222.168137,257.748230 220.532883,257.009766   C214.673416,254.363678 208.828033,251.686401 202.977325,249.020935   C199.060410,247.291519 195.194702,245.430939 191.209991,243.875214   C188.158844,242.683960 187.191742,241.208008 188.640884,237.922501   C191.027786,232.510880 192.942032,226.890778 195.684448,221.139923   C204.882339,222.939194 213.451294,224.957077 222.020248,226.974960  z"
   id="path84" />
<path
   fill="#E5DD4B"
   opacity="1.000000"
   stroke="none"
   d=" M222.045135,226.510330   C213.451294,224.957077 204.882339,222.939194 195.874405,220.848419   C200.660889,200.807388 203.942505,180.599838 202.855896,159.865829   C202.682907,156.565002 202.338196,153.273193 202.093323,149.547928   C204.828384,153.861984 207.542999,158.605316 210.484818,163.581512   C213.874512,176.638809 217.478577,189.376068 220.033539,202.320419   C221.561432,210.061249 221.446503,218.126358 222.045135,226.510330  z"
   id="path86" />
<path
   fill="#EA8108"
   opacity="1.000000"
   stroke="none"
   d=" M202.908173,249.366730   C208.828033,251.686401 214.673416,254.363678 220.532883,257.009766   C222.168137,257.748230 223.845001,258.394531 225.896667,259.130341   C219.842575,265.796173 213.627655,272.663361 206.893616,278.976898   C195.953659,289.233704 185.519989,299.791779 179.025131,314.087067   C176.706207,313.140900 174.944962,312.025146 173.183716,310.909393   C175.036163,298.017273 180.873383,286.747131 187.436707,275.760040   C192.609543,267.100647 197.707703,258.396698 202.908173,249.366730  z"
   id="path88" />
<path
   fill="#27A538"
   opacity="1.000000"
   stroke="none"
   d=" M172.984344,279.613922   C168.186783,276.045807 163.237488,272.243866 158.646393,268.049805   C148.498901,258.779877 138.375778,249.471970 128.553482,239.861908   C123.250275,234.673309 118.587173,228.830460 113.340698,223.126221   C114.468513,218.093155 115.890930,213.216644 117.730148,208.373169   C127.970795,217.954193 137.707916,227.594070 147.669022,236.996674   C150.835938,239.986038 154.598816,242.344009 158.088974,244.990921   C161.414154,251.058868 165.132507,256.951538 167.940399,263.250122   C170.197220,268.312531 171.351547,273.866394 172.984344,279.613922  z"
   id="path90" />
<path
   fill="#CFD73E"
   opacity="1.000000"
   stroke="none"
   d=" M194.764557,148.627686   C185.494141,142.182541 176.301804,135.274353 166.932800,128.050110   C169.682465,119.377701 172.655029,111.037018 175.496384,102.651894   C176.069366,100.961006 176.145279,99.101677 176.404877,96.932144   C178.102737,90.419121 179.846085,84.293953 181.589432,78.168777   C182.003418,78.072647 182.417404,77.976517 182.831375,77.880379   C185.274261,85.814217 187.717148,93.748055 190.329437,102.007767   C191.526047,108.587646 192.553268,114.841667 193.703430,121.452927   C194.165131,130.594986 194.503891,139.379807 194.764557,148.627686  z"
   id="path92" />
<path
   fill="#4FAE32"
   opacity="1.000000"
   stroke="none"
   d=" M158.064453,244.569855   C154.598816,242.344009 150.835938,239.986038 147.669022,236.996674   C137.707916,227.594070 127.970795,217.954193 117.968857,208.092712   C119.166084,203.751343 120.541405,199.723450 121.920776,195.312927   C122.901154,193.623428 123.877472,192.316589 125.517075,191.053528   C129.049683,193.822372 131.640732,196.945770 134.848419,199.186386   C140.830200,203.364761 147.170517,207.029846 153.361633,210.908539   C154.921082,221.988617 156.480515,233.068710 158.064453,244.569855  z"
   id="path94" />
<path
   fill="#7BB829"
   opacity="1.000000"
   stroke="none"
   d=" M153.521484,210.469788   C147.170517,207.029846 140.830200,203.364761 134.848419,199.186386   C131.640732,196.945770 129.049683,193.822372 125.822342,190.973022   C131.455963,183.088226 137.447601,175.327759 143.703903,167.440735   C148.202499,171.239685 152.436447,175.165192 157.044006,179.191635   C156.172211,189.538727 154.926773,199.784897 153.521484,210.469788  z"
   id="path96" />
<path
   fill="#88BB26"
   opacity="1.000000"
   stroke="none"
   d=" M162.088638,180.372833   C164.104858,181.627243 166.130539,183.214020 167.969406,184.993805   C174.802597,191.607468 181.574310,198.284683 188.718170,204.982193   C186.302200,214.357117 183.537140,223.687881 180.772095,233.018646   C180.237717,233.021820 179.703354,233.024994 179.168976,233.028183   C167.895279,217.533524 164.083908,199.463837 162.088638,180.372833  z"
   id="path98" />
<path
   fill="#515151"
   opacity="1.000000"
   stroke="none"
   d=" M172.849945,311.087158   C174.944962,312.025146 176.706207,313.140900 178.813934,314.384521   C178.807220,316.596405 178.971039,318.996338 177.947693,320.670776   C177.023743,322.182617 174.589706,323.949921 173.211823,323.671722   C171.857574,323.398315 170.068176,320.659943 170.125092,319.062256   C170.218567,316.438080 171.649292,313.861572 172.849945,311.087158  z"
   id="path100" />
<path
   fill="#3199D5"
   opacity="1.000000"
   stroke="none"
   d=" M155.999710,136.944275   C148.261627,147.314026 141.115326,157.728485 132.927246,167.246750   C128.366089,172.548874 122.070824,176.359253 115.730026,181.514267   C113.647934,176.355316 111.717033,171.743149 109.918083,167.080063   C105.246536,154.970871 106.350357,143.017090 111.083214,131.211273   C116.860764,116.799576 125.052040,104.167877 137.688126,94.711472   C146.330246,88.244003 156.192520,85.325424 166.697205,84.037033   C170.454315,83.576225 172.241226,84.910851 172.020599,89.008209   C171.210541,104.051727 166.451141,117.867371 159.378372,131.001831   C158.355942,132.900528 157.232727,134.744949 155.999710,136.944275  z"
   id="path102" />
</svg>